<svg width="242" height="48" viewBox="0 0 242 48" fill="none" xmlns="http://www.w3.org/2000/svg">
<g id="Group 11">
<path id="dappy" fill-rule="evenodd" clip-rule="evenodd" d="M57.7587 30.5842V9.73406H61.2506C62.6965 9.73406 64.0587 9.9916 65.3373 10.5067C66.616 11.0217 67.732 11.745 68.6839 12.676C69.6363 13.607 70.3901 14.7093 70.9459 15.9835C71.5011 17.2582 71.7792 18.6544 71.7792 20.1726C71.7792 21.6005 71.5366 22.9204 71.0518 24.1312C70.5664 25.3426 69.8962 26.3951 69.0411 27.2902C68.1854 28.1849 67.1849 28.9076 66.0385 29.4591C64.892 30.0105 63.658 30.3402 62.3353 30.4487C61.9472 30.4851 61.5586 30.5162 61.1711 30.5437C60.783 30.5707 60.3864 30.5842 59.9806 30.5842H57.7587ZM81.2509 25.6628C81.7271 23.9369 81.9652 22.1159 81.9652 20.1995C81.9652 18.3017 81.7225 16.4849 81.2377 14.7496C80.7524 13.0144 80.0736 11.397 79.2007 9.89639C78.3278 8.39634 77.2736 7.04063 76.0395 5.82927C74.805 4.61842 73.4427 3.57893 71.9523 2.71129C70.4619 1.84366 68.8575 1.17541 67.1376 0.704992C65.4182 0.235089 63.6325 -0.00012207 61.7809 -0.00012207H48.739C48.3333 -0.00012207 48.0293 0.117743 47.8267 0.352435C47.6235 0.587646 47.5227 0.895029 47.5227 1.27459V39.1519C47.5227 39.6223 47.6458 39.9291 47.8925 40.0735C48.1397 40.2184 48.4219 40.2905 48.739 40.2905H61.7809C63.6325 40.2905 65.4223 40.06 67.1513 39.5994C68.8793 39.1384 70.4882 38.4836 71.9787 37.6336C73.4691 36.7842 74.8267 35.7535 76.0527 34.5427C77.2782 33.3318 78.3319 31.9803 79.2139 30.489C80.0953 28.9978 80.7747 27.3892 81.2509 25.6628ZM122.2 39.1653C122.306 38.8855 122.359 38.5916 122.359 38.2842V7.72754C122.359 7.4025 122.306 7.11329 122.2 6.85991C122.094 6.60704 121.918 6.38118 121.671 6.18231C121.477 5.98345 121.248 5.85676 120.983 5.80276C120.719 5.74824 120.489 5.72124 120.295 5.72124H116.354C116.001 5.72124 115.728 5.74409 115.534 5.78874C115.34 5.83443 115.177 5.92426 115.045 6.0603C114.912 6.19582 114.789 6.40351 114.674 6.68389C114.559 6.96427 114.414 7.32981 114.238 7.78206L113.471 10.2494C112.994 9.54433 112.439 8.88906 111.804 8.28312C111.169 7.6777 110.459 7.15795 109.674 6.72439C108.889 6.29083 108.025 5.9471 107.082 5.69424C106.139 5.44137 105.12 5.31468 104.027 5.31468C101.628 5.31468 99.3796 5.77109 97.2808 6.68389C95.1819 7.5967 93.3567 8.85271 91.805 10.4525C90.2527 12.0522 89.0273 13.9323 88.1276 16.0918C87.2284 18.2523 86.7785 20.5889 86.7785 23.1009C86.7785 24.764 86.9811 26.3591 87.3869 27.8861C87.7927 29.4142 88.3702 30.8374 89.12 32.1568C89.8693 33.4761 90.7639 34.674 91.805 35.7493C92.8455 36.8252 94.0046 37.7468 95.2838 38.5147C96.5619 39.2832 97.9378 39.8751 99.4105 40.2905C100.883 40.7064 102.422 40.9146 104.027 40.9146C104.926 40.9146 105.794 40.8014 106.632 40.5756C107.469 40.3492 108.255 40.0517 108.987 39.6809C109.718 39.3102 110.388 38.8901 110.997 38.4197C111.605 37.9503 112.148 37.4711 112.624 36.983L112.968 38.2027C113.073 38.5106 113.175 38.7951 113.272 39.0568C113.369 39.319 113.488 39.5407 113.629 39.7214C113.77 39.9021 113.955 40.0423 114.185 40.1415C114.414 40.2412 114.714 40.2905 115.084 40.2905H120.295C120.489 40.2905 120.719 40.2635 120.983 40.2095C121.248 40.155 121.477 40.0288 121.671 39.8299C121.918 39.6669 122.094 39.4457 122.2 39.1653ZM96.3016 23.1006C96.3016 24.2933 96.482 25.4097 96.8437 26.4492C97.2054 27.4887 97.7211 28.388 98.3913 29.1471C99.0616 29.9062 99.8686 30.5075 100.812 30.9498C101.755 31.3933 102.8 31.6139 103.947 31.6139C105.128 31.6139 106.226 31.3933 107.24 30.9498C108.254 30.5075 109.136 29.9062 109.886 29.1471C110.635 28.388 111.221 27.4887 111.645 26.4492C112.068 25.4097 112.28 24.2933 112.28 23.1006C112.28 21.9438 112.068 20.841 111.645 19.7926C111.221 18.7448 110.635 17.8227 109.886 17.0272C109.136 16.2318 108.254 15.604 107.24 15.1429C106.226 14.6819 105.128 14.4513 103.947 14.4513C102.8 14.4513 101.755 14.6819 100.812 15.1429C99.8686 15.604 99.0616 16.2318 98.3913 17.0272C97.7211 17.8227 97.2054 18.7448 96.8437 19.7926C96.482 20.841 96.3016 21.9438 96.3016 23.1006ZM138.84 38.4922V47.1301C138.84 47.6104 138.46 47.9998 137.991 47.9998H129.557C129.088 47.9998 128.708 47.6104 128.708 47.1301V7.72731C128.708 7.36592 128.774 7.06789 128.906 6.83268C129.039 6.59798 129.202 6.38095 129.396 6.18208C129.625 5.98322 129.863 5.85652 130.11 5.80252C130.357 5.748 130.595 5.721 130.824 5.721H134.819C135.154 5.721 135.431 5.77552 135.652 5.88404C135.873 5.99204 136.053 6.14158 136.194 6.3311C136.336 6.52114 136.454 6.73766 136.551 6.98169C136.648 7.22573 136.741 7.49262 136.829 7.78183L137.425 9.5415C137.647 10.1968 138.49 10.3375 138.901 9.78709C139.078 9.5498 139.257 9.31044 139.435 9.06952C139.937 8.39192 140.533 7.77715 141.221 7.22573C141.909 6.67431 142.728 6.21843 143.681 5.85652C144.633 5.49514 145.797 5.31445 147.173 5.31445C149.589 5.31445 151.815 5.77085 153.852 6.68366C155.889 7.59646 157.644 8.85248 159.117 10.4522C160.589 12.052 161.74 13.9321 162.569 16.0921C163.397 18.2521 163.812 20.5886 163.812 23.1007C163.812 25.595 163.397 27.9269 162.569 30.0957C161.74 32.2651 160.589 34.1493 159.117 35.7491C157.644 37.3488 155.889 38.6095 153.852 39.5317C151.815 40.4533 149.589 40.9144 147.173 40.9144C146.026 40.9144 145.038 40.7742 144.21 40.4938C143.381 40.2139 142.645 39.8479 142.001 39.3962C141.357 38.9444 140.789 38.447 140.295 37.9044C139.774 37.3327 138.84 37.7102 138.84 38.4922ZM138.101 22.694C138.153 21.5735 138.414 20.5158 138.881 19.5215C139.348 18.5277 139.957 17.6642 140.706 16.9321C141.456 16.2005 142.329 15.6221 143.325 15.1973C144.322 14.7726 145.375 14.5597 146.486 14.5597C147.615 14.5597 148.646 14.7861 149.582 15.2378C150.516 15.6896 151.318 16.3043 151.989 17.0811C152.659 17.8589 153.179 18.767 153.55 19.806C153.92 20.846 154.105 21.9442 154.105 23.1005C154.105 24.2937 153.92 25.4147 153.55 26.4625C153.179 27.5114 152.659 28.4195 151.989 29.1875C151.318 29.9559 150.516 30.566 149.582 31.0177C148.646 31.4695 147.615 31.6953 146.486 31.6953C145.34 31.6953 144.255 31.4695 143.232 31.0177C142.21 30.566 141.319 29.9559 140.561 29.1875C139.802 28.4195 139.202 27.5114 138.762 26.4625C138.321 25.4147 138.101 24.2937 138.101 23.1005V22.694ZM179.234 38.4662V47.1405C179.234 47.615 178.859 47.9998 178.396 47.9998H169.941C169.478 47.9998 169.102 47.615 169.102 47.1405V7.72731C169.102 7.36592 169.169 7.06789 169.301 6.83268C169.433 6.59798 169.596 6.38095 169.79 6.18208C170.019 5.98322 170.257 5.85652 170.505 5.80252C170.751 5.748 170.989 5.721 171.219 5.721H175.213C175.548 5.721 175.826 5.77552 176.047 5.88404C176.267 5.99204 176.447 6.14158 176.589 6.3311C176.73 6.52114 176.849 6.73766 176.946 6.98169C177.043 7.22573 177.135 7.49262 177.224 7.78183L177.826 9.55967C178.045 10.2071 178.878 10.3458 179.284 9.80163C179.465 9.55967 179.647 9.31563 179.829 9.06952C180.332 8.39192 180.927 7.77715 181.615 7.22573C182.303 6.67431 183.123 6.21843 184.075 5.85652C185.028 5.49514 186.192 5.31445 187.567 5.31445C189.983 5.31445 192.21 5.77085 194.247 6.68366C196.284 7.59646 198.039 8.85248 199.511 10.4522C200.983 12.052 202.134 13.9321 202.963 16.0921C203.792 18.2521 204.206 20.5886 204.206 23.1007C204.206 25.595 203.792 27.9269 202.963 30.0957C202.134 32.2651 200.983 34.1493 199.511 35.7491C198.039 37.3488 196.284 38.6095 194.247 39.5317C192.21 40.4533 189.983 40.9144 187.567 40.9144C186.42 40.9144 185.433 40.7742 184.605 40.4938C183.775 40.2139 183.039 39.8479 182.395 39.3962C181.751 38.9444 181.183 38.447 180.689 37.9044C180.684 37.8992 180.679 37.8935 180.674 37.8883C180.159 37.3218 179.234 37.692 179.234 38.4662ZM178.493 22.694C178.546 21.5735 178.806 20.5158 179.274 19.5215C179.74 18.5277 180.349 17.6642 181.099 16.9321C181.848 16.2005 182.721 15.6221 183.718 15.1973C184.714 14.7726 185.768 14.5597 186.879 14.5597C188.008 14.5597 189.039 14.7861 189.974 15.2378C190.909 15.6896 191.711 16.3043 192.382 17.0811C193.051 17.8589 193.572 18.767 193.942 19.806C194.313 20.846 194.498 21.9442 194.498 23.1005C194.498 24.2937 194.313 25.4147 193.942 26.4625C193.572 27.5114 193.051 28.4195 192.382 29.1875C191.711 29.9559 190.909 30.566 189.974 31.0177C189.039 31.4695 188.008 31.6953 186.879 31.6953C185.732 31.6953 184.648 31.4695 183.625 31.0177C182.602 30.566 181.712 29.9559 180.953 29.1875C180.195 28.4195 179.595 27.5114 179.155 26.4625C178.714 25.4147 178.493 24.2937 178.493 23.1005V22.694ZM215.965 46.882L218.377 40.4592C218.45 40.2639 218.448 40.0469 218.371 39.8532L205.872 8.45958C205.59 7.73681 205.586 7.11737 205.859 6.60229C206.133 6.08722 206.736 5.82968 207.671 5.82968H214.205C214.646 5.82968 215.008 5.96987 215.29 6.24974C215.572 6.53012 215.783 6.87801 215.925 7.29339L222.646 26.8891C222.898 27.6243 223.914 27.6207 224.162 26.8839L230.739 7.29339C230.933 6.71549 231.179 6.3271 231.48 6.12772C231.779 5.92937 232.194 5.82968 232.723 5.82968H239.521C240.015 5.82968 240.403 5.89718 240.686 6.0327C240.967 6.16822 241.166 6.34943 241.28 6.57529C241.395 6.80116 241.435 7.05454 241.4 7.33441C241.364 7.61479 241.294 7.88998 241.188 8.16102C240.518 9.86046 239.786 11.7177 238.993 13.7329C238.199 15.7485 237.374 17.8452 236.519 20.0233C235.664 22.2015 234.795 24.416 233.913 26.6664C233.031 28.9167 232.171 31.126 231.334 33.2954C230.496 35.4642 229.689 37.5479 228.913 39.5448C228.137 41.5418 227.427 43.3767 226.784 45.0492C226.45 45.9163 226.141 46.7232 225.853 47.4791C225.733 47.7943 225.437 47.9999 225.106 47.9999H216.714C216.151 47.9999 215.763 47.421 215.965 46.882Z" fill="#1F2431"/>
<path id="Oval" fill-rule="evenodd" clip-rule="evenodd" d="M5.70241 17.2802C8.8519 17.2802 11.4051 14.7013 11.4051 11.5201C11.4051 8.33898 8.8519 5.76013 5.70241 5.76013C2.55292 5.76013 -0.000244141 8.33898 -0.000244141 11.5201C-0.000244141 14.7013 2.55292 17.2802 5.70241 17.2802Z" fill="#315EFB"/>
<path id="Oval_2" fill-rule="evenodd" clip-rule="evenodd" d="M24.7117 36.4799C27.8612 36.4799 30.4143 33.901 30.4143 30.7199C30.4143 27.5387 27.8612 24.9598 24.7117 24.9598C21.5622 24.9598 19.009 27.5387 19.009 30.7199C19.009 33.901 21.5622 36.4799 24.7117 36.4799Z" fill="#315EFB"/>
<path id="Oval_3" fill-rule="evenodd" clip-rule="evenodd" d="M24.5659 7.68056C21.3357 7.68056 18.717 10.3255 18.717 13.5883C18.717 16.851 21.3357 19.496 24.5659 19.496C27.7962 19.496 30.4148 16.851 30.4148 13.5883C30.4148 10.3255 27.7962 7.68056 24.5659 7.68056Z" fill="#315EFB"/>
<path id="Oval_4" fill-rule="evenodd" clip-rule="evenodd" d="M5.84961 26.5849C2.61936 26.5849 0.000733093 29.2298 0.000733093 32.4926C0.000733093 35.7553 2.61936 38.4003 5.84961 38.4003C9.07986 38.4003 11.6985 35.7553 11.6985 32.4926C11.6985 29.2298 9.07986 26.5849 5.84961 26.5849Z" fill="#315EFB"/>
</g>
</svg>
