<svg width="160" height="24" viewBox="0 0 160 24" fill="none" xmlns="http://www.w3.org/2000/svg">
<path d="M12 0C5.373 0 0 5.373 0 12C0 18.627 5.373 24 12 24C18.627 24 24 18.627 24 12C24 5.37152 18.627 0 12 0ZM17.97 9.30598L17.979 9.68848C17.979 13.5945 15.0075 18.0945 9.57297 18.0945C7.90498 18.0945 6.35246 17.6055 5.04447 16.767C5.2755 16.794 5.51096 16.809 5.74949 16.809C7.134 16.809 8.40749 16.3365 9.41848 15.5444C8.1255 15.5205 7.03497 14.6655 6.65848 13.4925C6.83996 13.527 7.02298 13.5435 7.21497 13.5435C7.48497 13.5435 7.74595 13.509 7.99345 13.4415C6.64195 13.1685 5.62346 11.976 5.62346 10.545V10.5075C6.02245 10.7295 6.47695 10.8615 6.96145 10.878C6.16944 10.3485 5.64744 9.44404 5.64744 8.41953C5.64744 7.87804 5.79296 7.37104 6.04643 6.93455C7.50294 8.72254 9.68093 9.89853 12.1364 10.0215C12.0854 9.80552 12.06 9.57904 12.06 9.34806C12.06 7.71758 13.3829 6.39455 15.015 6.39455C15.8639 6.39455 16.632 6.75302 17.1719 7.32752C17.8439 7.194 18.4769 6.94802 19.0484 6.61052C18.8279 7.30053 18.36 7.87952 17.7494 8.2455C18.345 8.17499 18.9164 8.01447 19.4459 7.78049C19.05 8.37147 18.5475 8.89199 17.97 9.30598Z" fill="#1F2431"/>
<path d="M74.1622 10.7694C73.9223 10.5814 73.6269 10.4731 73.3195 10.4731C72.5658 10.4731 71.9529 11.0869 71.9529 11.8411C71.9529 12.2782 72.1638 12.6813 72.5064 12.935C72.7907 12.1213 73.3674 11.3823 74.1622 10.7694Z" fill="#1F2431"/>
<path d="M85.8614 7.39445C86.4244 7.39445 86.8823 6.93606 86.8823 6.37258C86.8823 5.8091 86.4244 5.3512 85.8614 5.3512C85.2979 5.3512 84.8391 5.8091 84.8391 6.37258C84.8391 6.93606 85.2979 7.39445 85.8614 7.39445Z" fill="#1F2431"/>
<path d="M80 0C73.3728 0 68 5.37281 68 12C68 18.6272 73.3728 24 80 24C86.6272 24 92 18.6272 92 12C92 5.37281 86.6272 0 80 0ZM87.5754 13.5119C87.6076 13.701 87.6282 13.8923 87.6282 14.0874C87.6282 16.896 84.1904 19.1806 79.9644 19.1806C75.7387 19.1806 72.3013 16.896 72.3013 14.0874C72.3013 13.8802 72.3254 13.6774 72.3617 13.4771C71.7852 13.139 71.4209 12.5198 71.4209 11.8414C71.4209 10.7935 72.2726 9.94177 73.3198 9.94177C73.7983 9.94177 74.254 10.1321 74.6036 10.4544C75.9555 9.57299 77.7949 9.02351 79.8254 8.99896L81.0076 5.25987C81.0499 5.12655 81.1878 5.04847 81.3226 5.08088L84.4172 5.80935C84.6436 5.23139 85.2039 4.81964 85.8616 4.81964C86.7178 4.81964 87.4148 5.51644 87.4148 6.37283C87.4148 7.22922 86.7178 7.92651 85.8616 7.92651C85.0048 7.92651 84.308 7.22922 84.308 6.37283C84.308 6.35834 84.3117 6.34558 84.3121 6.33109L81.4412 5.65492L80.3806 9.00829C82.3222 9.07777 84.0759 9.62406 85.3711 10.4814C85.7232 10.1414 86.1835 9.94152 86.6802 9.94152C87.7276 9.94152 88.5801 10.7937 88.5801 11.8414C88.5794 12.5519 88.1904 13.1839 87.5754 13.5119Z" fill="#1F2431"/>
<path d="M76.2653 13.1451C76.2653 12.5217 76.7726 12.0145 77.396 12.0145C78.0193 12.0145 78.5264 12.5217 78.5264 13.1451C78.5264 13.7685 78.0196 14.2755 77.396 14.2755C76.7723 14.2755 76.2653 13.7685 76.2653 13.1451ZM82.743 16.497C82.1734 17.0671 81.2789 17.3438 80.0091 17.3438C80.0061 17.3438 80.0034 17.3416 80 17.3416C79.9966 17.3416 79.9939 17.3438 79.9904 17.3438C78.7206 17.3438 77.8264 17.0671 77.2565 16.497C77.1529 16.3934 77.1529 16.2252 77.2565 16.1211C77.3606 16.0175 77.5288 16.0175 77.6329 16.1211C78.0977 16.5864 78.8686 16.812 79.9904 16.812C79.9939 16.812 79.9966 16.814 80 16.814C80.0034 16.814 80.0061 16.812 80.0091 16.812C81.1311 16.812 81.9023 16.5862 82.3671 16.1211C82.4712 16.0175 82.6394 16.0175 82.7435 16.1211C82.8471 16.2252 82.8471 16.3937 82.743 16.497ZM82.6082 14.2755C81.9853 14.2755 81.4778 13.769 81.4778 13.1451C81.4778 12.5213 81.9848 12.0145 82.6082 12.0145C83.2316 12.0145 83.7386 12.5217 83.7386 13.1451C83.7386 13.7685 83.2316 14.2755 82.6082 14.2755Z" fill="#1F2431"/>
<path d="M86.6795 10.4731C86.3534 10.4731 86.0475 10.5907 85.803 10.7955C86.5928 11.4132 87.1629 12.1571 87.4382 12.9752C87.8141 12.725 88.0471 12.3069 88.0471 11.8411C88.0471 11.0869 87.4342 10.4731 86.6795 10.4731Z" fill="#1F2431"/>
<path fill-rule="evenodd" clip-rule="evenodd" d="M148 24C154.627 24 160 18.6274 160 12C160 5.37258 154.627 0 148 0C141.373 0 136 5.37258 136 12C136 18.6274 141.373 24 148 24ZM146 8C146 9.10457 145.105 10 144 10C142.895 10 142 9.10457 142 8C142 6.89543 142.895 6 144 6C145.105 6 146 6.89543 146 8ZM154 8C154 9.10457 153.105 10 152 10C150.895 10 150 9.10457 150 8C150 6.89543 150.895 6 152 6C153.105 6 154 6.89543 154 8ZM154 16C154 17.1046 153.105 18 152 18C150.895 18 150 17.1046 150 16C150 14.8954 150.895 14 152 14C153.105 14 154 14.8954 154 16ZM146 16C146 17.1046 145.105 18 144 18C142.895 18 142 17.1046 142 16C142 14.8954 142.895 14 144 14C145.105 14 146 14.8954 146 16Z" fill="#1F2431"/>
<path d="M46.0175 11.9365C46.012 11.9365 46.0058 11.9362 46 11.936C45.994 11.9362 45.9878 11.9365 45.9823 11.9365C44.493 11.9365 43.1807 11.5595 42.4052 12.2715C41.9405 12.6987 41.7448 13.2135 41.7448 13.7677C41.7448 16.083 43.5998 16.3673 45.982 16.3673H46.0175C48.3997 16.3673 50.2547 16.0827 50.2547 13.7677C50.2547 13.2132 50.059 12.6987 49.5942 12.2715C48.8187 11.5595 47.5067 11.9365 46.0175 11.9365ZM43.992 15.1003C43.5387 15.1003 43.1713 14.5913 43.1713 13.9635C43.1713 13.3358 43.5387 12.827 43.992 12.827C44.4452 12.827 44.8132 13.3358 44.8132 13.9635C44.8132 14.5913 44.4452 15.1003 43.992 15.1003ZM48.0077 15.1003C47.5542 15.1003 47.1865 14.5913 47.1865 13.9635C47.1865 13.3358 47.5542 12.827 48.0077 12.827C48.4607 12.827 48.8285 13.3358 48.8285 13.9635C48.8285 14.5913 48.461 15.1003 48.0077 15.1003ZM46 0C39.3723 0 34 5.3725 34 12C34 18.6275 39.3723 24 46 24C52.6273 24 58 18.6275 58 12C58 5.3725 52.6273 0 46 0ZM47.0945 16.9252C46.8795 16.9252 46.452 16.9258 46 16.9263C45.5477 16.9258 45.12 16.9252 44.9052 16.9252C43.9545 16.9252 40.1895 16.8525 40.1895 12.314C40.1895 11.2698 40.5475 10.5058 41.1333 9.8695C41.0398 9.63875 41.035 8.32825 41.5338 7.07375C41.5338 7.07375 42.6777 7.19925 44.4087 8.387C44.7715 8.28675 45.3857 8.23675 46 8.23675C46.6137 8.23675 47.228 8.2865 47.5913 8.387C49.322 7.19925 50.4657 7.07375 50.4657 7.07375C50.9645 8.32825 50.96 9.63875 50.8665 9.8695C51.4525 10.5058 51.8105 11.27 51.8105 12.314C51.8105 16.8525 48.0452 16.9252 47.0945 16.9252Z" fill="#1F2431"/>
<path d="M116.182 13.0909H112.909V15.2727H116.182C117.624 15.2727 117.624 13.0909 116.182 13.0909Z" fill="#1F2431"/>
<path d="M116.182 8.72728H112.909V10.9091H116.182C117.624 10.9091 117.624 8.72728 116.182 8.72728Z" fill="#1F2431"/>
<path d="M114 0C107.51 0 102 5.29164 102 12C102 18.6257 107.402 24 114 24C120.617 24 126 18.6168 126 12C126 5.3832 120.617 0 114 0ZM116.182 17.4545H115.091V18.5455C115.091 19.9835 112.909 19.9894 112.909 18.5455V17.4545H109.636C108.198 17.4545 108.192 15.2727 109.636 15.2727H110.727V8.72727H109.636C108.198 8.72727 108.192 6.54545 109.636 6.54545H112.909V5.45455C112.909 4.01651 115.091 4.01062 115.091 5.45455V6.54545H116.182C118.982 6.54545 120.521 9.87353 118.603 12C120.521 14.1265 118.982 17.4545 116.182 17.4545Z" fill="#1F2431"/>
</svg>
